<svg width="825" height="259" viewBox="0 0 825 259" fill="none" xmlns="http://www.w3.org/2000/svg">
<g filter="url(#filter0_f_164_836)">
<path d="M-2.07031 175.44C8.30963 153.731 37.2138 116.825 69.7908 142.876C110.512 175.44 117.698 262.277 189.559 182.677C261.42 103.076 263.816 57.2454 318.909 116.343C374.003 175.44 366.817 235.744 429.096 209.21C491.376 182.677 522.516 57.2454 580.005 116.343C637.494 175.44 647.075 287.605 738.099 195.943" stroke="#57A800" stroke-width="0.737123"/>
<path d="M-89.9351 219.173C-83.7314 196.987 -61.3246 158.611 -21.3273 182.597C28.6694 212.58 55.1657 298.472 113.522 215.143C171.878 131.815 164.413 86.1211 235.334 141.635C306.254 197.149 311.827 257.51 371.655 227.489C431.483 197.469 436.951 70.9713 510.395 126.345C583.839 181.719 618.379 292.645 694.295 196.207" stroke="#00A859" stroke-width="0.737123"/>
<path d="M-8.8291 178.433C1.22959 156.687 29.6339 119.669 62.7818 145.561C104.217 177.926 112.888 264.69 183.71 184.803C254.533 104.916 256.17 59.0957 312.481 117.917C368.792 176.739 362.587 237.047 424.678 210.245C486.769 183.444 515.934 57.9303 574.65 116.741C633.366 175.552 644.868 287.621 734.73 195.593" stroke="#50A807" stroke-width="0.737123"/>
<path d="M-15.5879 181.427C-5.85045 159.644 22.0541 122.512 55.7727 148.246C97.921 180.412 108.078 267.104 177.861 186.93C247.645 106.756 248.523 60.9461 306.052 119.492C363.58 178.038 358.357 238.351 420.259 211.281C482.162 184.211 509.352 58.6153 569.296 117.14C629.239 175.664 642.66 287.638 731.36 195.242" stroke="#49A80E" stroke-width="0.737123"/>
<path d="M-22.3467 184.421C-12.9305 162.601 14.4743 125.357 48.7637 150.931C91.6254 182.899 103.268 269.518 172.012 189.057C240.757 108.597 240.877 62.7974 299.623 121.068C358.369 179.338 354.127 239.655 415.841 212.317C477.555 184.979 502.77 59.3013 563.941 117.539C625.112 175.778 640.453 287.656 727.991 194.893" stroke="#43A815" stroke-width="0.737123"/>
<path d="M-29.1055 187.415C-20.0105 165.559 6.89441 128.201 41.7546 153.617C85.3299 185.387 98.4576 271.933 166.163 191.185C233.869 110.438 233.23 64.6492 293.194 122.644C353.157 180.639 349.897 240.96 411.422 213.353C472.947 185.747 496.188 59.9877 558.586 117.939C620.985 175.891 638.246 287.674 724.621 194.543" stroke="#3CA81B" stroke-width="0.737123"/>
<path d="M-35.8643 190.41C-27.0906 168.517 -0.685429 131.046 34.7456 156.303C79.0343 187.874 93.6474 274.348 160.314 193.313C226.981 112.279 225.584 66.5009 286.765 124.22C347.946 181.939 345.667 242.265 407.004 214.39C468.34 186.515 489.607 60.674 553.232 118.339C616.858 176.005 636.038 287.693 721.251 194.194" stroke="#35A822" stroke-width="0.737123"/>
<path d="M-42.623 193.405C-34.1706 171.476 -8.26527 133.892 27.7365 158.99C72.7388 190.362 88.8373 276.763 154.465 195.442C220.094 114.121 217.938 68.3533 280.336 125.797C342.735 183.24 341.437 243.57 402.585 215.427C463.733 187.284 483.025 61.361 547.877 118.74C612.73 176.119 633.831 287.712 717.882 193.846" stroke="#2FA829" stroke-width="0.737123"/>
<path d="M-49.3823 196.401C-41.2511 174.435 -15.8456 136.738 20.727 161.677C66.4427 192.851 84.0266 279.179 148.616 197.571C213.205 115.963 210.291 70.2061 273.907 127.374C337.523 184.542 337.207 244.876 398.166 216.465C459.126 188.054 476.442 62.0485 542.522 119.141C608.603 176.233 631.623 287.731 714.512 193.497" stroke="#28A830" stroke-width="0.737123"/>
<path d="M-56.1411 199.397C-48.3312 177.394 -23.4254 139.584 13.718 164.364C60.1472 195.34 79.2165 281.595 142.767 199.7C206.317 117.806 202.645 72.0593 267.478 128.952C332.311 185.844 332.977 246.182 393.748 217.503C454.519 188.824 469.86 62.7364 537.168 119.542C604.475 176.348 629.416 287.751 711.143 193.15" stroke="#21A837" stroke-width="0.737123"/>
<path d="M-62.8999 202.394C-55.4112 180.354 -31.0053 142.431 6.70892 167.052C53.8516 197.829 74.4064 284.012 136.918 201.831C199.43 119.649 194.998 73.9133 261.049 130.53C327.1 187.147 328.747 247.489 389.329 218.542C449.911 189.594 463.279 63.4249 531.813 119.945C600.348 176.464 627.209 287.771 707.773 192.803" stroke="#1BA83E" stroke-width="0.737123"/>
<path d="M-69.6587 206.49C-62.4912 184.414 -38.5851 146.378 -0.300143 170.84C47.5561 201.419 69.5962 287.529 131.069 205.061C192.542 122.593 187.352 76.8671 254.62 133.208C321.888 189.549 324.517 249.896 384.91 220.68C445.304 191.465 456.697 65.2134 526.459 121.447C596.221 177.68 625.001 288.891 704.403 193.556" stroke="#14A844" stroke-width="0.737123"/>
<path d="M-76.4175 210.717C-69.5713 188.605 -46.1649 150.455 -7.30917 174.759C41.2605 205.138 64.7861 291.176 125.22 208.421C185.654 125.666 179.706 79.9512 248.191 136.017C316.677 192.082 320.287 252.433 380.492 222.949C440.697 193.465 450.115 67.1321 521.104 123.079C592.094 179.026 622.794 290.142 701.034 194.439" stroke="#0DA84B" stroke-width="0.737123"/>
<path d="M-83.1763 214.944C-76.6513 192.795 -53.7448 154.533 -14.3182 178.678C34.9649 208.859 59.9759 294.823 119.371 211.782C178.766 128.74 172.059 83.0356 241.763 138.825C311.466 194.615 316.057 254.971 376.073 225.219C436.09 195.466 443.533 69.0512 515.75 124.711C587.966 180.372 620.586 291.393 697.664 195.322" stroke="#07A852" stroke-width="0.737123"/>
</g>
<g opacity="0.66" filter="url(#filter1_f_164_836)">
<path d="M72.2651 124.7C83.6726 83.8503 113.332 12.608 140.71 54.4383C174.932 106.726 170.906 132.87 227.272 80.5823C283.639 28.2944 263.508 -2.75158 315.848 54.4383C368.188 111.628 366.175 172.086 414.489 113.262C462.803 54.4383 482.933 -15.8236 551.378 54.4383C619.823 124.7 609.757 176.988 682.228 124.7C740.205 82.8699 785.566 47.3577 801 34.8304" stroke="#AFF960" stroke-width="0.825353"/>
<path d="M-8.2583 124.712C3.14915 83.8623 32.8085 12.62 60.1864 54.4503C94.4088 106.738 90.3826 132.882 146.749 80.5943C203.115 28.3063 182.984 -2.73962 235.324 54.4503C287.664 111.64 285.651 172.098 333.965 113.274C382.279 54.4503 402.41 -15.8116 470.855 54.4503C539.299 124.712 529.234 177 601.705 124.712C659.682 82.8819 705.043 47.3696 720.477 34.8423" stroke="#046A37" stroke-width="0.825353"/>
<path d="M69.168 124.701C80.5754 83.851 110.235 12.6087 137.613 54.4391C171.835 106.727 167.809 132.871 224.175 80.583C280.541 28.2951 260.411 -2.75085 312.751 54.4391C365.091 111.629 363.078 172.087 411.392 113.263C459.705 54.4391 479.836 -15.8228 548.281 54.4391C616.726 124.701 606.66 176.989 679.131 124.701C737.108 82.8706 782.469 47.3584 797.903 34.8311" stroke="#A8F45E" stroke-width="0.825353"/>
<path d="M66.0708 124.701C77.4783 83.8513 107.138 12.609 134.516 54.4393C168.738 106.727 164.712 132.871 221.078 80.5833C277.444 28.2954 257.313 -2.75061 309.653 54.4393C361.994 111.629 359.98 172.087 408.294 113.263C456.608 54.4393 476.739 -15.8226 545.184 54.4393C613.629 124.701 603.563 176.989 676.034 124.701C734.011 82.8709 779.372 47.3587 794.806 34.8313" stroke="#A2EE5D" stroke-width="0.825353"/>
<path d="M62.9736 124.702C74.3811 83.8518 104.04 12.6095 131.418 54.4398C165.641 106.728 161.615 132.872 217.981 80.5838C274.347 28.2958 254.216 -2.75012 306.556 54.4398C358.896 111.63 356.883 172.088 405.197 113.264C453.511 54.4398 473.642 -15.8221 542.087 54.4398C610.531 124.702 600.466 176.99 672.937 124.702C730.914 82.8714 776.275 47.3591 791.709 34.8318" stroke="#9BE95B" stroke-width="0.825353"/>
<path d="M59.877 124.702C71.2844 83.852 100.944 12.6097 128.322 54.44C162.544 106.728 158.518 132.872 214.884 80.584C271.25 28.2961 251.12 -2.74988 303.46 54.44C355.8 111.63 353.787 172.088 402.101 113.264C450.414 54.44 470.545 -15.8219 538.99 54.44C607.435 124.702 597.369 176.99 669.84 124.702C727.817 82.8716 773.178 47.3594 788.612 34.8321" stroke="#95E35A" stroke-width="0.825353"/>
<path d="M56.7798 124.702C68.1872 83.8525 97.8466 12.6102 125.225 54.4405C159.447 106.728 155.421 132.872 211.787 80.5845C268.153 28.2966 248.022 -2.74939 300.362 54.4405C352.703 111.63 350.689 172.088 399.003 113.264C447.317 54.4405 467.448 -15.8214 535.893 54.4405C604.338 124.702 594.272 176.99 666.743 124.702C724.72 82.8721 770.081 47.3599 785.515 34.8326" stroke="#8EDE58" stroke-width="0.825353"/>
<path d="M53.6826 124.703C65.0901 83.8527 94.7494 12.6104 122.127 54.4408C156.35 106.729 152.324 132.873 208.69 80.5847C265.056 28.2968 244.925 -2.74914 297.265 54.4408C349.605 111.631 347.592 172.089 395.906 113.265C444.22 54.4408 464.351 -15.8211 532.796 54.4408C601.24 124.703 591.175 176.991 663.646 124.703C721.622 82.8723 766.984 47.3601 782.418 34.8328" stroke="#87D856" stroke-width="0.825353"/>
<path d="M50.5854 124.703C61.9929 83.8532 91.6523 12.6109 119.03 54.4413C153.253 106.729 149.226 132.873 205.593 80.5852C261.959 28.2973 241.828 -2.74866 294.168 54.4413C346.508 111.631 344.495 172.089 392.809 113.265C441.123 54.4413 461.254 -15.8206 529.698 54.4413C598.143 124.703 588.078 176.991 660.549 124.703C718.525 82.8728 763.887 47.3606 779.32 34.8333" stroke="#81D355" stroke-width="0.825353"/>
<path d="M47.4888 124.704C58.8962 83.854 88.5556 12.6117 115.933 54.442C150.156 106.73 146.13 132.874 202.496 80.586C258.862 28.298 238.731 -2.74792 291.071 54.442C343.412 111.632 341.398 172.09 389.712 113.266C438.026 54.442 458.157 -15.8199 526.602 54.442C595.046 124.704 584.981 176.992 657.452 124.704C715.429 82.8736 760.79 47.3613 776.224 34.834" stroke="#7ACD53" stroke-width="0.825353"/>
<path d="M44.3916 124.704C55.7991 83.8542 85.4584 12.6119 112.836 54.4422C147.059 106.73 143.033 132.874 199.399 80.5862C255.765 28.2983 235.634 -2.74768 287.974 54.4422C340.314 111.632 338.301 172.09 386.615 113.266C434.929 54.4422 455.06 -15.8197 523.505 54.4422C591.949 124.704 581.884 176.992 654.355 124.704C712.331 82.8738 757.693 47.3616 773.127 34.8343" stroke="#74C852" stroke-width="0.825353"/>
<path d="M41.2944 124.705C52.7019 83.8547 82.3613 12.6124 109.739 54.4427C143.962 106.731 139.935 132.875 196.302 80.5867C252.668 28.2988 232.537 -2.74719 284.877 54.4427C337.217 111.633 335.204 172.091 383.518 113.267C431.832 54.4427 451.963 -15.8192 520.407 54.4427C588.852 124.705 578.787 176.993 651.258 124.705C709.234 82.8743 754.596 47.3621 770.029 34.8348" stroke="#6DC250" stroke-width="0.825353"/>
<path d="M38.1973 124.705C49.6047 83.8552 79.2641 12.6129 106.642 54.4432C140.864 106.731 136.838 132.875 193.204 80.5872C249.571 28.2993 229.44 -2.7467 281.78 54.4432C334.12 111.633 332.107 172.091 380.421 113.267C428.735 54.4432 448.866 -15.8187 517.31 54.4432C585.755 124.705 575.69 176.993 648.16 124.705C706.137 82.8748 751.499 47.3626 766.932 34.8352" stroke="#66BD4F" stroke-width="0.825353"/>
<path d="M35.1006 124.706C46.508 83.8559 76.1674 12.6136 103.545 54.4439C137.768 106.732 133.742 132.876 190.108 80.5879C246.474 28.3 226.343 -2.74597 278.683 54.4439C331.023 111.634 329.01 172.092 377.324 113.268C425.638 54.444 445.769 -15.818 514.214 54.4439C582.658 124.706 572.593 176.994 645.064 124.706C703.04 82.8755 748.402 47.3633 763.836 34.836" stroke="#60B74D" stroke-width="0.825353"/>
<path d="M32.0034 124.706C43.4109 83.8562 73.0702 12.6139 100.448 54.4442C134.67 106.732 130.644 132.876 187.011 80.5882C243.377 28.3002 223.246 -2.74573 275.586 54.4442C327.926 111.634 325.913 172.092 374.227 113.268C422.541 54.4442 442.672 -15.8177 511.116 54.4442C579.561 124.706 569.496 176.994 641.967 124.706C699.943 82.8758 745.305 47.3635 760.738 34.8362" stroke="#59B24C" stroke-width="0.825353"/>
<path d="M28.9062 124.707C40.3137 83.8566 69.9731 12.6143 97.351 54.4447C131.573 106.733 127.547 132.877 183.913 80.5886C240.28 28.3007 220.149 -2.74524 272.489 54.4447C324.829 111.635 322.816 172.093 371.13 113.269C419.444 54.4447 439.575 -15.8172 508.019 54.4447C576.464 124.707 566.399 176.995 638.869 124.707C696.846 82.8762 742.208 47.364 757.641 34.8367" stroke="#53AC4A" stroke-width="0.825353"/>
<path d="M25.8091 124.707C37.2165 83.8571 66.8759 12.6148 94.2538 54.4452C128.476 106.733 124.45 132.877 180.816 80.5891C237.182 28.3012 217.052 -2.74475 269.392 54.4452C321.732 111.635 319.719 172.093 368.033 113.269C416.347 54.4452 436.477 -15.8167 504.922 54.4452C573.367 124.707 563.301 176.995 635.772 124.707C693.749 82.8767 739.11 47.3645 754.544 34.8372" stroke="#4CA748" stroke-width="0.825353"/>
<path d="M22.7124 124.708C34.1199 83.8579 63.7792 12.6156 91.1571 54.4459C125.379 106.734 121.353 132.878 177.72 80.5899C234.086 28.3019 213.955 -2.74402 266.295 54.4459C318.635 111.636 316.622 172.094 364.936 113.27C413.25 54.4459 433.381 -15.816 501.825 54.4459C570.27 124.708 560.205 176.996 632.676 124.708C690.652 82.8775 736.014 47.3652 751.447 34.8379" stroke="#46A147" stroke-width="0.825353"/>
<path d="M19.6152 124.708C31.0227 83.8581 60.6821 12.6158 88.06 54.4461C122.282 106.734 118.256 132.878 174.622 80.5901C230.989 28.3022 210.858 -2.74377 263.198 54.4461C315.538 111.636 313.525 172.094 361.839 113.27C410.153 54.4461 430.284 -15.8158 498.728 54.4461C567.173 124.708 557.108 176.996 629.578 124.708C687.555 82.8777 732.917 47.3655 748.35 34.8382" stroke="#3F9C45" stroke-width="0.825353"/>
<path d="M16.5181 124.709C27.9255 83.8586 57.5849 12.6163 84.9628 54.4466C119.185 106.735 115.159 132.879 171.525 80.5906C227.891 28.3027 207.761 -2.74328 260.101 54.4466C312.441 111.637 310.428 172.094 358.742 113.271C407.056 54.4466 427.186 -15.8153 495.631 54.4466C564.076 124.709 554.01 176.996 626.481 124.709C684.458 82.8782 729.819 47.366 745.253 34.8387" stroke="#389644" stroke-width="0.825353"/>
<path d="M13.4209 124.709C24.8284 83.8591 54.4877 12.6168 81.8656 54.4471C116.088 106.735 112.062 132.879 168.428 80.5911C224.794 28.3032 204.663 -2.7428 257.004 54.4471C309.344 111.637 307.331 172.095 355.644 113.271C403.958 54.4471 424.089 -15.8148 492.534 54.4471C560.979 124.709 550.913 176.997 623.384 124.709C681.361 82.8787 726.722 47.3665 742.156 34.8392" stroke="#329142" stroke-width="0.825353"/>
<path d="M10.3242 124.71C21.7317 83.8596 51.391 12.6173 78.7689 54.4476C112.991 106.736 108.965 132.88 165.331 80.5916C221.698 28.3037 201.567 -2.74231 253.907 54.4476C306.247 111.638 304.234 172.095 352.548 113.272C400.862 54.4476 420.993 -15.8143 489.437 54.4476C557.882 124.71 547.817 176.997 620.287 124.71C678.264 82.8792 723.626 47.367 739.059 34.8396" stroke="#2B8B41" stroke-width="0.825353"/>
<path d="M7.22705 124.71C18.6345 83.8601 48.2939 12.6178 75.6718 54.4481C109.894 106.736 105.868 132.88 162.234 80.5921C218.6 28.3041 198.47 -2.74182 250.81 54.4481C303.15 111.638 301.137 172.096 349.451 113.272C397.765 54.4481 417.895 -15.8138 486.34 54.4481C554.785 124.71 544.719 176.998 617.19 124.71C675.167 82.8797 720.528 47.3674 735.962 34.8401" stroke="#25863F" stroke-width="0.825353"/>
<path d="M4.12988 124.71C15.5373 83.8603 45.1967 12.618 72.5746 54.4483C106.797 106.736 102.771 132.88 159.137 80.5923C215.503 28.3044 195.372 -2.74157 247.713 54.4483C300.053 111.638 298.04 172.096 346.353 113.272C394.667 54.4483 414.798 -15.8136 483.243 54.4483C551.688 124.71 541.622 176.998 614.093 124.71C672.07 82.8799 717.431 47.3677 732.865 34.8404" stroke="#1E803D" stroke-width="0.825353"/>
<path d="M1.03271 124.711C12.4402 83.8608 42.0995 12.6185 69.4774 54.4488C103.7 106.737 99.6736 132.881 156.04 80.5928C212.406 28.3049 192.275 -2.74109 244.615 54.4488C296.955 111.639 294.942 172.097 343.256 113.273C391.57 54.4488 411.701 -15.8131 480.146 54.4488C548.59 124.711 538.525 176.999 610.996 124.711C668.973 82.8804 714.334 47.3682 729.768 34.8409" stroke="#177B3C" stroke-width="0.825353"/>
<path d="M-2.06396 124.711C9.34349 83.8613 39.0029 12.619 66.3808 54.4493C100.603 106.737 96.5769 132.881 152.943 80.5933C209.309 28.3054 189.179 -2.7406 241.519 54.4493C293.859 111.639 291.846 172.097 340.16 113.273C388.474 54.4493 408.604 -15.8126 477.049 54.4493C545.494 124.711 535.428 176.999 607.899 124.711C665.876 82.8809 711.237 47.3687 726.671 34.8413" stroke="#11753A" stroke-width="0.825353"/>
<path d="M-5.16113 124.712C6.24632 83.8618 35.9057 12.6195 63.2836 54.4498C97.5059 106.738 93.4798 132.882 149.846 80.5938C206.212 28.3058 186.081 -2.74011 238.422 54.4498C290.762 111.64 288.749 172.098 337.062 113.274C385.376 54.4498 405.507 -15.8121 473.952 54.4498C542.397 124.712 532.331 177 604.802 124.712C662.779 82.8814 708.14 47.3692 723.574 34.8418" stroke="#0A7039" stroke-width="0.825353"/>
</g>
<path d="M-94.7773 131.668C-83.112 102.645 -50.1707 53.237 -11.7283 87.7945C36.3248 130.991 46.3814 246.793 128.516 140.17C210.65 33.5469 212.549 -27.6078 277.854 50.8997C343.16 129.407 335.964 209.898 407.972 174.127C479.981 138.355 513.805 -29.1631 581.899 49.3299C649.994 127.823 663.333 277.398 767.548 154.57" stroke="#50A807" stroke-width="0.854861"/>
<path d="M-102.616 135.663C-91.3229 106.591 -58.9613 57.0323 -19.8569 91.3778C29.0236 134.31 40.8029 250.014 121.733 143.008C202.662 36.0027 203.681 -25.1379 270.398 53.0017C337.116 131.141 331.058 211.638 402.848 175.509C474.638 139.379 506.172 -28.2487 575.69 49.8621C645.208 127.973 660.773 277.421 763.64 154.103" stroke="#49A80E" stroke-width="0.854861"/>
<path d="M-118.293 143.656C-107.745 114.486 -76.5429 64.6251 -36.1146 98.5466C14.4208 140.948 29.6454 256.459 108.166 148.688C186.686 40.9166 185.945 -20.196 255.486 57.2079C325.028 134.612 321.246 215.12 392.599 178.275C463.951 141.429 490.905 -26.4175 563.269 50.9287C635.634 128.275 655.652 277.469 755.824 153.17" stroke="#3CA81B" stroke-width="0.854861"/>
<path d="M-126.131 147.653C-115.956 118.434 -85.3335 68.4224 -44.2432 102.132C7.11967 144.269 24.0669 259.682 101.382 151.528C178.698 43.3744 177.078 -17.7242 248.031 59.3118C318.984 136.348 316.341 216.862 387.475 179.659C458.609 142.455 483.271 -25.5011 557.06 51.4629C630.848 128.427 653.092 277.493 751.916 152.704" stroke="#35A822" stroke-width="0.854861"/>
<path d="M-133.97 151.651C-124.167 122.382 -94.1241 72.2202 -52.3718 105.718C-0.181489 147.59 18.4884 262.906 94.5991 154.369C170.71 45.8328 168.21 -15.2518 240.575 61.4163C312.94 138.084 311.435 218.604 382.35 181.043C453.265 143.482 475.638 -24.5841 550.85 51.9976C626.061 128.579 650.532 277.519 748.009 152.239" stroke="#2FA829" stroke-width="0.854861"/>
<path d="M-141.808 155.649C-132.378 126.332 -102.915 76.0184 -60.5004 109.304C-7.48265 150.911 12.9099 266.13 87.8158 157.211C162.722 48.2915 159.342 -12.779 233.119 63.5212C306.896 139.821 306.529 220.347 377.226 182.428C447.922 144.508 468.005 -23.6667 544.64 52.5327C621.275 128.732 647.972 277.544 744.101 151.774" stroke="#28A830" stroke-width="0.854861"/>
<path d="M-149.646 159.648C-140.589 130.282 -111.705 79.8175 -68.629 112.891C-14.7838 154.233 7.33145 269.355 81.0326 160.053C154.734 50.7511 150.475 -10.3055 225.663 65.6269C300.852 141.559 301.624 222.091 372.102 183.813C442.579 145.536 460.372 -22.7485 538.43 53.0686C616.488 128.886 645.413 277.571 740.193 151.31" stroke="#21A837" stroke-width="0.854861"/>
<path d="M-157.485 163.647C-148.8 134.232 -120.496 83.6168 -76.7576 116.478C-22.0849 157.555 1.75296 272.58 74.2494 162.896C146.746 53.211 141.607 -7.83157 218.208 67.7329C294.809 143.297 296.718 223.835 366.977 185.199C437.236 146.564 452.739 -21.83 532.22 53.6048C611.702 129.04 642.853 277.597 736.285 150.846" stroke="#1BA83E" stroke-width="0.854861"/>
<path d="M-165.323 169.115C-157.011 139.651 -129.286 88.8847 -84.8862 121.534C-29.3861 162.346 -3.82556 277.274 67.4661 167.207C138.758 57.1394 132.739 -3.88915 210.752 71.3074C288.765 146.504 291.813 227.047 361.853 188.054C431.893 149.06 445.105 -19.443 526.01 55.6096C606.915 130.662 640.293 279.093 732.377 151.851" stroke="#14A844" stroke-width="0.854861"/>
<path d="M-173.162 174.756C-165.222 145.243 -138.077 94.3265 -93.0148 126.764C-36.6872 167.311 -9.40403 282.142 60.6829 171.692C130.77 61.2417 123.872 0.22719 203.296 75.0559C282.721 149.885 286.907 230.434 356.729 191.082C426.55 151.731 437.472 -16.882 519.801 57.7882C602.129 132.458 637.733 280.762 728.47 153.03" stroke="#0DA84B" stroke-width="0.854861"/>
<path d="M-181 180.399C-173.433 150.837 -146.868 99.7691 -101.143 131.994C-43.9884 172.276 -14.9825 287.01 53.8996 176.177C122.782 65.3448 115.004 4.34431 195.84 78.8051C276.677 153.266 282.001 233.821 351.604 194.111C421.207 154.402 429.839 -14.3203 513.591 59.9677C597.342 134.256 635.173 282.432 724.562 154.21" stroke="#07A852" stroke-width="0.854861"/>
<defs>
<filter id="filter0_f_164_836" x="-97.5189" y="81.9086" width="843.109" height="176.249" filterUnits="userSpaceOnUse" color-interpolation-filters="sRGB">
<feFlood flood-opacity="0" result="BackgroundImageFix"/>
<feBlend mode="normal" in="SourceGraphic" in2="BackgroundImageFix" result="shape"/>
<feGaussianBlur stdDeviation="3.61444" result="effect1_foregroundBlur_164_836"/>
</filter>
<filter id="filter1_f_164_836" x="-32.0322" y="-1.71661e-05" width="856.669" height="169.731" filterUnits="userSpaceOnUse" color-interpolation-filters="sRGB">
<feFlood flood-opacity="0" result="BackgroundImageFix"/>
<feBlend mode="normal" in="SourceGraphic" in2="BackgroundImageFix" result="shape"/>
<feGaussianBlur stdDeviation="11.6882" result="effect1_foregroundBlur_164_836"/>
</filter>
</defs>
</svg>
