<?xml version="1.0" encoding="utf-8"?>
<!-- Generator: Adobe Illustrator 23.1.0, SVG Export Plug-In . SVG Version: 6.00 Build 0)  -->
<svg version="1.1" id="Layer_1" xmlns="http://www.w3.org/2000/svg" xmlns:xlink="http://www.w3.org/1999/xlink" x="0px" y="0px"
	 viewBox="0 0 635 633" style="enable-background:new 0 0 635 633;" xml:space="preserve">
<style type="text/css">
	.st0{fill:none;}
	.st1{fill:#FFFFFF;}
	.st2{fill:#167D3F;}
	.st3{fill:#ED2224;}
</style>
<rect x="177" y="215" class="st0" width="210" height="45"/>
<path class="st0" d="M662.1-20.4c0-3.4-0.7-4.1-4.1-4.1c-112,0.1-223.9,0.1-335.9,0.1s-223.9,0-335.9-0.1c-3.4,0-4.1,0.7-4.1,4.1
	c0.1,223.6,0.1,447.2,0,670.8c0,3.4,0.7,4.1,4.1,4.1c223.9-0.1,447.9-0.1,671.8,0c3.4,0,4.1-0.7,4.1-4.1
	C662,426.8,662,203.2,662.1-20.4z M317.2,615.5c-165,0.4-301.9-134-300.7-302.7c1.2-165,135.6-298.6,301.7-298.2
	c165.1,0.4,299.4,135.2,299.4,301C617.6,480.9,483.1,615.1,317.2,615.5z"/>
<path class="st1" d="M192.1,398.1c0,3.8-1,4.8-4.7,4.6c-7.1-0.3-14.3,0-21.5-0.2c-13-0.3-23.5-10.3-23.8-23.3
	c-0.4-18.1-0.2-36.3-0.2-54.5c0-30.8,0.1-61.6-0.1-92.4c0-3.8,0.8-5.2,4.9-5c6.3,0.4,12.6,0.1,19,0.1c15.6,0.1,26.3,10.6,26.4,26.2
	c0.1,24,0,48,0,71.9C192,349.8,191.9,374,192.1,398.1z"/>
<path class="st1" d="M292,211.5c0.1,75.9,0,151.9,0.1,227.8c0,3.1-0.6,4.4-4,4.3c-7-0.3-14,0-21-0.1c-14.4-0.2-25-11-25-25.5
	c0-37.5,0-74.9,0-112.4c0-37.8,0.1-75.6-0.1-113.4c0-4.7,1.4-5.9,5.8-5.6c8.1,0.6,16.3-0.8,24.4,0.8
	C283.6,189.7,292,199.7,292,211.5z"/>
<path class="st1" d="M392.2,466.5c0,4.1-0.9,5.4-5.1,5.2c-6.6-0.4-13.3-0.1-20-0.2c-14.4-0.2-25-11-25-25.5
	c0-94.3,0-188.6-0.1-282.9c0-3.7,0.8-4.9,4.6-4.6c8.8,0.7,17.7-1.1,26.4,1c11.7,2.7,19.1,12.2,19.2,24.1c0,47.1,0,94.3,0,141.5
	C392.1,372.2,392,419.3,392.2,466.5z"/>
<path class="st1" d="M492.2,385.9c0,3.5-0.9,4.6-4.4,4.4c-6.5-0.3-13,0-19.5-0.1c-15.3-0.1-26.2-10.8-26.2-26
	c-0.1-40.1,0-80.3,0-120.4c0-1.9-0.7-4.2,2.7-4c8.6,0.3,17.3-0.7,25.9,0.6c12.8,1.8,21.4,11.6,21.5,24.6c0.1,19.8,0,39.6,0,59.5
	C492.2,344.9,492.1,365.4,492.2,385.9z"/>
<path class="st1" d="M318.2,14.6C152.1,14.2,17.7,147.7,16.5,312.8c-1.2,168.8,135.7,303.1,300.7,302.7
	c165.9-0.4,300.3-134.6,300.4-300C617.6,149.8,483.3,14.9,318.2,14.6z M316.8,584.3C165.5,583.6,47.3,460.6,47.9,313.9
	C48.6,165.7,169,45.6,318.6,46C467.3,46.5,588.1,168.7,586.1,319C584.1,462.9,467.3,583.8,316.8,584.3z"/>
<path class="st2" d="M192.1,398.1c0,3.8-1,4.8-4.7,4.6c-7.1-0.3-14.3,0-21.5-0.2c-13-0.3-23.5-10.3-23.8-23.3
	c-0.4-18.1-0.2-36.3-0.2-54.5c0-30.8,0.1-61.6-0.1-92.4c0-3.8,0.8-5.2,4.9-5c6.3,0.4,12.6,0.1,19,0.1c15.6,0.1,26.3,10.6,26.4,26.2
	c0.1,24,0,48,0,71.9C192,349.8,191.9,374,192.1,398.1z"/>
<path class="st2" d="M292,211.5c0.1,75.9,0,151.9,0.1,227.8c0,3.1-0.6,4.4-4,4.3c-7-0.3-14,0-21-0.1c-14.4-0.2-25-11-25-25.5
	c0-37.5,0-74.9,0-112.4c0-37.8,0.1-75.6-0.1-113.4c0-4.7,1.4-5.9,5.8-5.6c8.1,0.6,16.3-0.8,24.4,0.8
	C283.6,189.7,292,199.7,292,211.5z"/>
<path class="st2" d="M392.2,466.5c0,4.1-0.9,5.4-5.1,5.2c-6.6-0.4-13.3-0.1-20-0.2c-14.4-0.2-25-11-25-25.5
	c0-94.3,0-188.6-0.1-282.9c0-3.7,0.8-4.9,4.6-4.6c8.8,0.7,17.7-1.1,26.4,1c11.7,2.7,19.1,12.2,19.2,24.1c0,47.1,0,94.3,0,141.5
	C392.1,372.2,392,419.3,392.2,466.5z"/>
<path class="st2" d="M492.2,385.9c0,3.5-0.9,4.6-4.4,4.4c-6.5-0.3-13,0-19.5-0.1c-15.3-0.1-26.2-10.8-26.2-26
	c-0.1-40.1,0-80.3,0-120.4c0-1.9-0.7-4.2,2.7-4c8.6,0.3,17.3-0.7,25.9,0.6c12.8,1.8,21.4,11.6,21.5,24.6c0.1,19.8,0,39.6,0,59.5
	C492.2,344.9,492.1,365.4,492.2,385.9z"/>
<path class="st1" d="M192.1,398.1c0,3.8-1,4.8-4.7,4.6c-7.1-0.3-14.3,0-21.5-0.2c-13-0.3-23.5-10.3-23.8-23.3
	c-0.4-18.1-0.2-36.3-0.2-54.5c0-30.8,0.1-61.6-0.1-92.4c0-3.8,0.8-5.2,4.9-5c6.3,0.4,12.6,0.1,19,0.1c15.6,0.1,26.3,10.6,26.4,26.2
	c0.1,24,0,48,0,71.9C192,349.8,191.9,374,192.1,398.1z"/>
<path class="st1" d="M292,211.5c0.1,75.9,0,151.9,0.1,227.8c0,3.1-0.6,4.4-4,4.3c-7-0.3-14,0-21-0.1c-14.4-0.2-25-11-25-25.5
	c0-37.5,0-74.9,0-112.4c0-37.8,0.1-75.6-0.1-113.4c0-4.7,1.4-5.9,5.8-5.6c8.1,0.6,16.3-0.8,24.4,0.8
	C283.6,189.7,292,199.7,292,211.5z"/>
<path class="st1" d="M392.2,466.5c0,4.1-0.9,5.4-5.1,5.2c-6.6-0.4-13.3-0.1-20-0.2c-14.4-0.2-25-11-25-25.5
	c0-94.3,0-188.6-0.1-282.9c0-3.7,0.8-4.9,4.6-4.6c8.8,0.7,17.7-1.1,26.4,1c11.7,2.7,19.1,12.2,19.2,24.1c0,47.1,0,94.3,0,141.5
	C392.1,372.2,392,419.3,392.2,466.5z"/>
<path class="st1" d="M492.2,385.9c0,3.5-0.9,4.6-4.4,4.4c-6.5-0.3-13,0-19.5-0.1c-15.3-0.1-26.2-10.8-26.2-26
	c-0.1-40.1,0-80.3,0-120.4c0-1.9-0.7-4.2,2.7-4c8.6,0.3,17.3-0.7,25.9,0.6c12.8,1.8,21.4,11.6,21.5,24.6c0.1,19.8,0,39.6,0,59.5
	C492.2,344.9,492.1,365.4,492.2,385.9z"/>
<g>
	<path class="st2" d="M318.2,14.6C152.1,14.2,17.7,147.7,16.5,312.8c-1.2,168.8,135.7,303.1,300.7,302.7
		c165.9-0.4,300.3-134.6,300.4-300C617.6,149.8,483.3,14.9,318.2,14.6z M316.8,584.3C165.5,583.6,47.3,460.6,47.9,313.9
		C48.6,165.7,169,45.6,318.6,46C467.3,46.5,588.1,168.7,586.1,319C584.1,462.9,467.3,583.8,316.8,584.3z"/>
	<path class="st3" d="M392.2,466.5c0,4.1-0.9,5.4-5.1,5.2c-6.6-0.4-13.3-0.1-20-0.2c-14.4-0.2-25-11-25-25.5
		c0-94.3,0-188.6-0.1-282.9c0-3.7,0.8-4.9,4.6-4.6c8.8,0.7,17.7-1.1,26.4,1c11.7,2.7,19.1,12.2,19.2,24.1c0,47.1,0,94.3,0,141.5
		C392.1,372.2,392,419.3,392.2,466.5z"/>
	<path class="st3" d="M292.1,439.3c0,3.1-0.6,4.4-4,4.3c-7-0.3-14,0-21-0.1c-14.4-0.2-25-11-25-25.5c0-37.5,0-74.9,0-112.4
		c0-37.8,0.1-75.6-0.1-113.4c0-4.7,1.4-5.9,5.8-5.6c8.1,0.6,16.3-0.8,24.4,0.8c11.5,2.3,19.9,12.3,19.9,24.1
		C292.1,287.4,292,363.3,292.1,439.3z"/>
	<path class="st3" d="M192.1,398.1c0,3.8-1,4.8-4.7,4.6c-7.1-0.3-14.3,0-21.5-0.2c-13-0.3-23.5-10.3-23.8-23.3
		c-0.4-18.1-0.2-36.3-0.2-54.5c0-30.8,0.1-61.6-0.1-92.4c0-3.8,0.8-5.2,4.9-5c6.3,0.4,12.6,0.1,19,0.1c15.6,0.1,26.3,10.6,26.4,26.2
		c0.1,24,0,48,0,71.9C192,349.8,191.9,374,192.1,398.1z"/>
	<path class="st3" d="M492.2,385.9c0,3.5-0.9,4.6-4.4,4.4c-6.5-0.3-13,0-19.5-0.1c-15.3-0.1-26.2-10.8-26.2-26
		c-0.1-40.1,0-80.3,0-120.4c0-1.9-0.7-4.2,2.7-4c8.6,0.3,17.3-0.7,25.9,0.6c12.8,1.8,21.4,11.6,21.5,24.6c0.1,19.8,0,39.6,0,59.5
		C492.2,344.9,492.1,365.4,492.2,385.9z"/>
</g>
</svg>
